<?xml version="1.0" encoding="UTF-8" standalone="no"?>
<!DOCTYPE svg PUBLIC "-//W3C//DTD SVG 1.0//EN" "http://www.w3.org/TR/2001/PR-SVG-20010719/DTD/svg10.dtd">
<svg width="41cm" height="51cm" viewBox="198 -52 801 1007" xmlns="http://www.w3.org/2000/svg" xmlns:xlink="http://www.w3.org/1999/xlink">
  <g>
    <rect style="fill: #ffffff" x="533.502" y="351.432" width="166.877" height="41.5269"/>
    <rect style="fill: none; fill-opacity:0; stroke-width: 2; stroke: #000000" x="533.502" y="351.432" width="166.877" height="41.5269"/>
    <text font-size="12.8" style="fill: #000000;text-anchor:middle;font-family:sans-serif;font-style:normal;font-weight:normal" x="616.941" y="376.995">
      <tspan x="616.941" y="376.995">WIZYTA</tspan>
    </text>
  </g>
  <g>
    <polygon style="fill: #ffffff" points="618.149,165.754 696.054,216.786 618.149,267.818 540.244,216.786 "/>
    <polygon style="fill: none; fill-opacity:0; stroke-width: 2; stroke: #000000" points="618.149,165.754 696.054,216.786 618.149,267.818 540.244,216.786 "/>
    <text font-size="12.8" style="fill: #000000;text-anchor:middle;font-family:sans-serif;font-style:normal;font-weight:normal" x="618.149" y="221.586">
      <tspan x="618.149" y="221.586">jest zapisany na</tspan>
    </text>
  </g>
  <g>
    <rect style="fill: #ffffff" x="582.032" y="14.8497" width="73.05" height="38"/>
    <rect style="fill: none; fill-opacity:0; stroke-width: 2; stroke: #000000" x="582.032" y="14.8497" width="73.05" height="38"/>
    <text font-size="12.8" style="fill: #000000;text-anchor:middle;font-family:sans-serif;font-style:normal;font-weight:normal" x="618.557" y="38.6497">
      <tspan x="618.557" y="38.6497">PACJENT</tspan>
    </text>
  </g>
  <line style="fill: none; fill-opacity:0; stroke-width: 2; stroke: #000000" x1="616.942" y1="351.432" x2="618.148" y2="267.818"/>
  <line style="fill: none; fill-opacity:0; stroke-width: 2; stroke: #000000" x1="628.254" y1="350.18" x2="628.002" y2="267.818"/>
  <g>
    <line style="fill: none; fill-opacity:0; stroke-width: 2; stroke: #000000" x1="618.148" y1="165.754" x2="618.521" y2="62.5856"/>
    <polygon style="fill: #000000" points="618.548,55.0857 623.512,65.1037 618.521,62.5856 613.512,65.0675 "/>
    <polygon style="fill: none; fill-opacity:0; stroke-width: 2; stroke: #000000" points="618.548,55.0857 623.512,65.1037 618.521,62.5856 613.512,65.0675 "/>
  </g>
  <line style="fill: none; fill-opacity:0; stroke-width: 2; stroke: #000000" x1="582.032" y1="33.8496" x2="426" y2="-39.1822"/>
  <g>
    <path style="fill: #ffffff" d="M 335.167 -50.1822 L 407.833,-50.1822 C 417.867,-50.1822 426,-45.2573 426,-39.1822 C 426,-33.1071 417.867,-28.1822 407.833,-28.1822 L 335.167,-28.1822 C 325.133,-28.1822 317,-33.1071 317,-39.1822 C 317,-45.2573 325.133,-50.1822 335.167,-50.1822z"/>
    <path style="fill: none; fill-opacity:0; stroke-width: 2; stroke: #000000" d="M 335.167 -50.1822 L 407.833,-50.1822 C 417.867,-50.1822 426,-45.2573 426,-39.1822 C 426,-33.1071 417.867,-28.1822 407.833,-28.1822 L 335.167,-28.1822 C 325.133,-28.1822 317,-33.1071 317,-39.1822 C 317,-45.2573 325.133,-50.1822 335.167,-50.1822"/>
    <text font-size="12.8" style="fill: #000000;text-anchor:middle;font-family:sans-serif;font-style:normal;font-weight:normal" x="371.5" y="-34.3822">
      <tspan x="371.5" y="-34.3822">pesel</tspan>
    </text>
  </g>
  <g>
    <path style="fill: #ffffff" d="M 333.767 -19.6821 L 406.433,-19.6821 C 416.467,-19.6821 424.6,-14.7573 424.6,-8.68214 C 424.6,-2.607 416.467,2.31786 406.433,2.31786 L 333.767,2.31786 C 323.733,2.31786 315.6,-2.607 315.6,-8.68214 C 315.6,-14.7573 323.733,-19.6821 333.767,-19.6821z"/>
    <path style="fill: none; fill-opacity:0; stroke-width: 2; stroke: #000000" d="M 333.767 -19.6821 L 406.433,-19.6821 C 416.467,-19.6821 424.6,-14.7573 424.6,-8.68214 C 424.6,-2.607 416.467,2.31786 406.433,2.31786 L 333.767,2.31786 C 323.733,2.31786 315.6,-2.607 315.6,-8.68214 C 315.6,-14.7573 323.733,-19.6821 333.767,-19.6821"/>
    <text font-size="12.8" style="fill: #000000;text-anchor:middle;font-family:sans-serif;font-style:normal;font-weight:normal" x="370.1" y="-3.88214">
      <tspan x="370.1" y="-3.88214">imię</tspan>
    </text>
  </g>
  <g>
    <path style="fill: #ffffff" d="M 336.767 13.3179 L 409.433,13.3179 C 419.467,13.3179 427.6,18.2427 427.6,24.3179 C 427.6,30.393 419.467,35.3179 409.433,35.3179 L 336.767,35.3179 C 326.733,35.3179 318.6,30.393 318.6,24.3179 C 318.6,18.2427 326.733,13.3179 336.767,13.3179z"/>
    <path style="fill: none; fill-opacity:0; stroke-width: 2; stroke: #000000" d="M 336.767 13.3179 L 409.433,13.3179 C 419.467,13.3179 427.6,18.2427 427.6,24.3179 C 427.6,30.393 419.467,35.3179 409.433,35.3179 L 336.767,35.3179 C 326.733,35.3179 318.6,30.393 318.6,24.3179 C 318.6,18.2427 326.733,13.3179 336.767,13.3179"/>
    <text font-size="12.8" style="fill: #000000;text-anchor:middle;font-family:sans-serif;font-style:normal;font-weight:normal" x="373.1" y="29.1179">
      <tspan x="373.1" y="29.1179">nazwisko</tspan>
    </text>
  </g>
  <g>
    <path style="fill: #ffffff" d="M 335.367 46.8178 L 408.033,46.8178 C 418.067,46.8178 426.2,51.7427 426.2,57.8178 C 426.2,63.8929 418.067,68.8178 408.033,68.8178 L 335.367,68.8178 C 325.333,68.8178 317.2,63.8929 317.2,57.8178 C 317.2,51.7427 325.333,46.8178 335.367,46.8178z"/>
    <path style="fill: none; fill-opacity:0; stroke-width: 2; stroke: #000000" d="M 335.367 46.8178 L 408.033,46.8178 C 418.067,46.8178 426.2,51.7427 426.2,57.8178 C 426.2,63.8929 418.067,68.8178 408.033,68.8178 L 335.367,68.8178 C 325.333,68.8178 317.2,63.8929 317.2,57.8178 C 317.2,51.7427 325.333,46.8178 335.367,46.8178"/>
    <text font-size="12.8" style="fill: #000000;text-anchor:middle;font-family:sans-serif;font-style:normal;font-weight:normal" x="371.7" y="62.6178">
      <tspan x="371.7" y="62.6178">adres</tspan>
    </text>
  </g>
  <line style="fill: none; fill-opacity:0; stroke-width: 2; stroke: #000000" x1="424.6" y1="-8.68214" x2="582.032" y2="33.8496"/>
  <line style="fill: none; fill-opacity:0; stroke-width: 2; stroke: #000000" x1="427.6" y1="24.3178" x2="582.032" y2="33.8496"/>
  <line style="fill: none; fill-opacity:0; stroke-width: 2; stroke: #000000" x1="426.2" y1="57.8178" x2="582.032" y2="33.8496"/>
  <g>
    <path style="fill: #ffffff" d="M 364.769 326.318 L 437.435,326.318 C 447.469,326.318 455.602,331.243 455.602,337.318 C 455.602,343.393 447.469,348.318 437.435,348.318 L 364.769,348.318 C 354.735,348.318 346.602,343.393 346.602,337.318 C 346.602,331.243 354.735,326.318 364.769,326.318z"/>
    <path style="fill: none; fill-opacity:0; stroke-width: 2; stroke: #000000" d="M 364.769 326.318 L 437.435,326.318 C 447.469,326.318 455.602,331.243 455.602,337.318 C 455.602,343.393 447.469,348.318 437.435,348.318 L 364.769,348.318 C 354.735,348.318 346.602,343.393 346.602,337.318 C 346.602,331.243 354.735,326.318 364.769,326.318"/>
    <text font-size="12.8" style="fill: #000000;text-anchor:middle;font-family:sans-serif;font-style:normal;font-weight:normal" x="401.102" y="342.118">
      <tspan x="401.102" y="342.118">data</tspan>
    </text>
  </g>
  <g>
    <path style="fill: #ffffff" d="M 310.277 356.818 L 429.127,356.818 C 445.536,356.818 458.839,361.743 458.839,367.818 C 458.839,373.893 445.536,378.818 429.127,378.818 L 310.277,378.818 C 293.867,378.818 280.564,373.893 280.564,367.818 C 280.564,361.743 293.867,356.818 310.277,356.818z"/>
    <path style="fill: none; fill-opacity:0; stroke-width: 2; stroke: #000000" d="M 310.277 356.818 L 429.127,356.818 C 445.536,356.818 458.839,361.743 458.839,367.818 C 458.839,373.893 445.536,378.818 429.127,378.818 L 310.277,378.818 C 293.867,378.818 280.564,373.893 280.564,367.818 C 280.564,361.743 293.867,356.818 310.277,356.818"/>
    <text font-size="12.8" style="fill: #000000;text-anchor:middle;font-family:sans-serif;font-style:normal;font-weight:normal" x="369.702" y="372.618">
      <tspan x="369.702" y="372.618">godzina rozpoczecia</tspan>
    </text>
  </g>
  <g>
    <path style="fill: #ffffff" d="M 308.889 387.318 L 430.589,387.318 C 447.392,387.318 461.014,392.243 461.014,398.318 C 461.014,404.393 447.392,409.318 430.589,409.318 L 308.889,409.318 C 292.086,409.318 278.464,404.393 278.464,398.318 C 278.464,392.243 292.086,387.318 308.889,387.318z"/>
    <path style="fill: none; fill-opacity:0; stroke-width: 2; stroke: #000000" d="M 308.889 387.318 L 430.589,387.318 C 447.392,387.318 461.014,392.243 461.014,398.318 C 461.014,404.393 447.392,409.318 430.589,409.318 L 308.889,409.318 C 292.086,409.318 278.464,404.393 278.464,398.318 C 278.464,392.243 292.086,387.318 308.889,387.318"/>
    <text font-size="12.8" style="fill: #000000;text-anchor:middle;font-family:sans-serif;font-style:normal;font-weight:normal" x="369.739" y="403.118">
      <tspan x="369.739" y="403.118">godzina zakończenia</tspan>
    </text>
  </g>
  <line style="fill: none; fill-opacity:0; stroke-width: 2; stroke: #000000" x1="455.602" y1="337.318" x2="533.502" y2="361.814"/>
  <line style="fill: none; fill-opacity:0; stroke-width: 2; stroke: #000000" x1="458.84" y1="367.818" x2="533.502" y2="361.814"/>
  <line style="fill: none; fill-opacity:0; stroke-width: 2; stroke: #000000" x1="461.014" y1="398.318" x2="533.502" y2="361.814"/>
  <g>
    <polygon style="fill: #ffffff" points="613.002,482.248 677.14,514.317 613.002,546.386 548.864,514.317 "/>
    <polygon style="fill: none; fill-opacity:0; stroke-width: 2; stroke: #000000" points="613.002,482.248 677.14,514.317 613.002,546.386 548.864,514.317 "/>
    <text font-size="12.8" style="fill: #000000;text-anchor:middle;font-family:sans-serif;font-style:normal;font-weight:normal" x="613.002" y="519.117">
      <tspan x="613.002" y="519.117">przyjmie</tspan>
    </text>
  </g>
  <g>
    <rect style="fill: #ffffff" x="515.002" y="620.318" width="186" height="38"/>
    <rect style="fill: none; fill-opacity:0; stroke-width: 2; stroke: #000000" x="515.002" y="620.318" width="186" height="38"/>
    <text font-size="12.8" style="fill: #000000;text-anchor:middle;font-family:sans-serif;font-style:normal;font-weight:normal" x="608.002" y="644.118">
      <tspan x="608.002" y="644.118">LEKARZ</tspan>
    </text>
  </g>
  <line style="fill: none; fill-opacity:0; stroke-width: 2; stroke: #000000" x1="613.002" y1="482.248" x2="616.942" y2="392.96"/>
  <g>
    <line style="fill: none; fill-opacity:0; stroke-width: 2; stroke: #000000" x1="613.002" y1="546.386" x2="609.601" y2="609.607"/>
    <polygon style="fill: #000000" points="609.198,617.097 604.742,606.842 609.601,609.607 614.728,607.38 "/>
    <polygon style="fill: none; fill-opacity:0; stroke-width: 2; stroke: #000000" points="609.198,617.097 604.742,606.842 609.601,609.607 614.728,607.38 "/>
  </g>
  <g>
    <path style="fill: #ffffff" d="M 350.769 607.818 L 423.435,607.818 C 433.469,607.818 441.602,612.743 441.602,618.818 C 441.602,624.893 433.469,629.818 423.435,629.818 L 350.769,629.818 C 340.735,629.818 332.602,624.893 332.602,618.818 C 332.602,612.743 340.735,607.818 350.769,607.818z"/>
    <path style="fill: none; fill-opacity:0; stroke-width: 2; stroke: #000000" d="M 350.769 607.818 L 423.435,607.818 C 433.469,607.818 441.602,612.743 441.602,618.818 C 441.602,624.893 433.469,629.818 423.435,629.818 L 350.769,629.818 C 340.735,629.818 332.602,624.893 332.602,618.818 C 332.602,612.743 340.735,607.818 350.769,607.818"/>
    <text font-size="12.8" style="fill: #000000;text-anchor:middle;font-family:sans-serif;font-style:normal;font-weight:normal" x="387.102" y="623.618">
      <tspan x="387.102" y="623.618">imię</tspan>
    </text>
  </g>
  <g>
    <path style="fill: #ffffff" d="M 349.769 640.818 L 422.435,640.818 C 432.469,640.818 440.602,645.743 440.602,651.818 C 440.602,657.893 432.469,662.818 422.435,662.818 L 349.769,662.818 C 339.735,662.818 331.602,657.893 331.602,651.818 C 331.602,645.743 339.735,640.818 349.769,640.818z"/>
    <path style="fill: none; fill-opacity:0; stroke-width: 2; stroke: #000000" d="M 349.769 640.818 L 422.435,640.818 C 432.469,640.818 440.602,645.743 440.602,651.818 C 440.602,657.893 432.469,662.818 422.435,662.818 L 349.769,662.818 C 339.735,662.818 331.602,657.893 331.602,651.818 C 331.602,645.743 339.735,640.818 349.769,640.818"/>
    <text font-size="12.8" style="fill: #000000;text-anchor:middle;font-family:sans-serif;font-style:normal;font-weight:normal" x="386.102" y="656.618">
      <tspan x="386.102" y="656.618">nazwisko</tspan>
    </text>
  </g>
  <line style="fill: none; fill-opacity:0; stroke-width: 2; stroke: #000000" x1="441.602" y1="618.818" x2="514.036" y2="627.742"/>
  <line style="fill: none; fill-opacity:0; stroke-width: 2; stroke: #000000" x1="440.602" y1="651.818" x2="515.002" y2="629.818"/>
  <g>
    <polygon style="fill: #ffffff" points="503.897,741.35 590.494,773.015 503.897,804.68 417.3,773.015 "/>
    <polygon style="fill: none; fill-opacity:0; stroke-width: 2; stroke: #000000" points="503.897,741.35 590.494,773.015 503.897,804.68 417.3,773.015 "/>
    <text font-size="12.8" style="fill: #000000;text-anchor:middle;font-family:sans-serif;font-style:normal;font-weight:normal" x="503.897" y="777.815">
      <tspan x="503.897" y="777.815">przyjmuje w</tspan>
    </text>
  </g>
  <g>
    <line style="fill: none; fill-opacity:0; stroke-width: 2; stroke: #000000" x1="503.896" y1="741.35" x2="526.051" y2="670.7"/>
    <polygon style="fill: #000000" points="528.295,663.544 530.074,674.582 526.051,670.7 520.532,671.589 "/>
    <polygon style="fill: none; fill-opacity:0; stroke-width: 2; stroke: #000000" points="528.295,663.544 530.074,674.582 526.051,670.7 520.532,671.589 "/>
  </g>
  <g>
    <rect style="fill: #ffffff" x="411.002" y="859.068" width="187" height="38"/>
    <rect style="fill: none; fill-opacity:0; stroke-width: 2; stroke: #000000" x="411.002" y="859.068" width="187" height="38"/>
    <text font-size="12.8" style="fill: #000000;text-anchor:middle;font-family:sans-serif;font-style:normal;font-weight:normal" x="504.502" y="882.868">
      <tspan x="504.502" y="882.868">TERMIN</tspan>
    </text>
  </g>
  <line style="fill: none; fill-opacity:0; stroke-width: 2; stroke: #000000" x1="503.896" y1="804.68" x2="504.502" y2="859.068"/>
  <g>
    <path style="fill: #ffffff" d="M 226.505 807.038 L 314.805,807.038 C 326.997,807.038 336.88,811.963 336.88,818.038 C 336.88,824.113 326.997,829.038 314.805,829.038 L 226.505,829.038 C 214.313,829.038 204.43,824.113 204.43,818.038 C 204.43,811.963 214.313,807.038 226.505,807.038z"/>
    <path style="fill: none; fill-opacity:0; stroke-width: 2; stroke: #000000" d="M 226.505 807.038 L 314.805,807.038 C 326.997,807.038 336.88,811.963 336.88,818.038 C 336.88,824.113 326.997,829.038 314.805,829.038 L 226.505,829.038 C 214.313,829.038 204.43,824.113 204.43,818.038 C 204.43,811.963 214.313,807.038 226.505,807.038"/>
    <text font-size="12.8" style="fill: #000000;text-anchor:middle;font-family:sans-serif;font-style:normal;font-weight:normal" x="270.655" y="822.838">
      <tspan x="270.655" y="822.838">nazwa poradni</tspan>
    </text>
  </g>
  <line style="fill: none; fill-opacity:0; stroke-width: 2; stroke: #000000" x1="336.88" y1="818.038" x2="411.002" y2="878.068"/>
  <g>
    <path style="fill: #ffffff" d="M 241.359 835.25 L 329.659,835.25 C 341.851,835.25 351.734,840.175 351.734,846.25 C 351.734,852.325 341.851,857.25 329.659,857.25 L 241.359,857.25 C 229.167,857.25 219.284,852.325 219.284,846.25 C 219.284,840.175 229.167,835.25 241.359,835.25z"/>
    <path style="fill: none; fill-opacity:0; stroke-width: 2; stroke: #000000" d="M 241.359 835.25 L 329.659,835.25 C 341.851,835.25 351.734,840.175 351.734,846.25 C 351.734,852.325 341.851,857.25 329.659,857.25 L 241.359,857.25 C 229.167,857.25 219.284,852.325 219.284,846.25 C 219.284,840.175 229.167,835.25 241.359,835.25"/>
    <text font-size="12.8" style="fill: #000000;text-anchor:middle;font-family:sans-serif;font-style:normal;font-weight:normal" x="285.509" y="851.05">
      <tspan x="285.509" y="851.05">dzień tygodnia</tspan>
    </text>
  </g>
  <g>
    <path style="fill: #ffffff" d="M 236.209 868.75 L 337.459,868.75 C 351.438,868.75 362.771,873.675 362.771,879.75 C 362.771,885.825 351.438,890.75 337.459,890.75 L 236.209,890.75 C 222.229,890.75 210.896,885.825 210.896,879.75 C 210.896,873.675 222.229,868.75 236.209,868.75z"/>
    <path style="fill: none; fill-opacity:0; stroke-width: 2; stroke: #000000" d="M 236.209 868.75 L 337.459,868.75 C 351.438,868.75 362.771,873.675 362.771,879.75 C 362.771,885.825 351.438,890.75 337.459,890.75 L 236.209,890.75 C 222.229,890.75 210.896,885.825 210.896,879.75 C 210.896,873.675 222.229,868.75 236.209,868.75"/>
    <text font-size="12.8" style="fill: #000000;text-anchor:middle;font-family:sans-serif;font-style:normal;font-weight:normal" x="286.834" y="884.55">
      <tspan x="286.834" y="884.55">godzina otwarcia</tspan>
    </text>
  </g>
  <g>
    <path style="fill: #ffffff" d="M 230.746 899.75 L 346.346,899.75 C 362.307,899.75 375.246,904.675 375.246,910.75 C 375.246,916.825 362.307,921.75 346.346,921.75 L 230.746,921.75 C 214.785,921.75 201.846,916.825 201.846,910.75 C 201.846,904.675 214.785,899.75 230.746,899.75z"/>
    <path style="fill: none; fill-opacity:0; stroke-width: 2; stroke: #000000" d="M 230.746 899.75 L 346.346,899.75 C 362.307,899.75 375.246,904.675 375.246,910.75 C 375.246,916.825 362.307,921.75 346.346,921.75 L 230.746,921.75 C 214.785,921.75 201.846,916.825 201.846,910.75 C 201.846,904.675 214.785,899.75 230.746,899.75"/>
    <text font-size="12.8" style="fill: #000000;text-anchor:middle;font-family:sans-serif;font-style:normal;font-weight:normal" x="288.546" y="915.55">
      <tspan x="288.546" y="915.55">godzina zamknięcia</tspan>
    </text>
  </g>
  <line style="fill: none; fill-opacity:0; stroke-width: 2; stroke: #000000" x1="362.772" y1="879.75" x2="409.008" y2="882.25"/>
  <line style="fill: none; fill-opacity:0; stroke-width: 2; stroke: #000000" x1="375.246" y1="910.75" x2="409.008" y2="882.25"/>
  <line style="fill: none; fill-opacity:0; stroke-width: 2; stroke: #000000" x1="620" y1="484.558" x2="624" y2="394.558"/>
  <g>
    <path style="fill: #ffffff" d="M 228.5 932.308 L 344.1,932.308 C 360.061,932.308 373,937.233 373,943.308 C 373,949.383 360.061,954.308 344.1,954.308 L 228.5,954.308 C 212.539,954.308 199.6,949.383 199.6,943.308 C 199.6,937.233 212.539,932.308 228.5,932.308z"/>
    <path style="fill: none; fill-opacity:0; stroke-width: 2; stroke: #000000" d="M 228.5 932.308 L 344.1,932.308 C 360.061,932.308 373,937.233 373,943.308 C 373,949.383 360.061,954.308 344.1,954.308 L 228.5,954.308 C 212.539,954.308 199.6,949.383 199.6,943.308 C 199.6,937.233 212.539,932.308 228.5,932.308"/>
    <text font-size="12.8" style="fill: #000000;text-anchor:middle;font-family:sans-serif;font-style:normal;font-weight:normal" x="286.3" y="948.108">
      <tspan x="286.3" y="948.108">pomieszczenie</tspan>
    </text>
  </g>
  <line style="fill: none; fill-opacity:0; stroke-width: 2; stroke: #000000" x1="373" y1="943.308" x2="409.008" y2="882.25"/>
  <g>
    <polygon style="fill: #ffffff" points="690.007,732.798 780.365,774.215 690.007,815.632 599.65,774.215 "/>
    <polygon style="fill: none; fill-opacity:0; stroke-width: 2; stroke: #000000" points="690.007,732.798 780.365,774.215 690.007,815.632 599.65,774.215 "/>
    <text font-size="12.8" style="fill: #000000;text-anchor:middle;font-family:sans-serif;font-style:normal;font-weight:normal" x="690.007" y="779.015">
      <tspan x="690.007" y="779.015">ma zaplanowany</tspan>
    </text>
  </g>
  <g>
    <rect style="fill: #ffffff" x="623.99" y="857.774" width="162" height="44"/>
    <rect style="fill: none; fill-opacity:0; stroke-width: 2; stroke: #000000" x="623.99" y="857.774" width="162" height="44"/>
    <text font-size="12.8" style="fill: #000000;text-anchor:middle;font-family:sans-serif;font-style:normal;font-weight:normal" x="704.99" y="884.574">
      <tspan x="704.99" y="884.574">URLOP</tspan>
    </text>
  </g>
  <line style="fill: none; fill-opacity:0; stroke-width: 2; stroke: #000000" x1="351.734" y1="846.25" x2="409.008" y2="882.25"/>
  <g>
    <line style="fill: none; fill-opacity:0; stroke-width: 2; stroke: #000000" x1="671.964" y1="737.41" x2="643.742" y2="670.383"/>
    <polygon style="fill: #000000" points="640.832,663.471 649.32,670.747 643.742,670.383 640.104,674.627 "/>
    <polygon style="fill: none; fill-opacity:0; stroke-width: 2; stroke: #000000" points="640.832,663.471 649.32,670.747 643.742,670.383 640.104,674.627 "/>
  </g>
  <line style="fill: none; fill-opacity:0; stroke-width: 2; stroke: #000000" x1="690.007" y1="815.632" x2="690" y2="855.891"/>
  <g>
    <path style="fill: #ffffff" d="M 872.72 853.91 L 972.72,853.91 C 986.527,853.91 997.72,858.835 997.72,864.91 C 997.72,870.985 986.527,875.91 972.72,875.91 L 872.72,875.91 C 858.913,875.91 847.72,870.985 847.72,864.91 C 847.72,858.835 858.913,853.91 872.72,853.91z"/>
    <path style="fill: none; fill-opacity:0; stroke-width: 2; stroke: #000000" d="M 872.72 853.91 L 972.72,853.91 C 986.527,853.91 997.72,858.835 997.72,864.91 C 997.72,870.985 986.527,875.91 972.72,875.91 L 872.72,875.91 C 858.913,875.91 847.72,870.985 847.72,864.91 C 847.72,858.835 858.913,853.91 872.72,853.91"/>
    <text font-size="12.8" style="fill: #000000;text-anchor:middle;font-family:sans-serif;font-style:normal;font-weight:normal" x="922.72" y="869.71">
      <tspan x="922.72" y="869.71">data rozpoczęcia</tspan>
    </text>
  </g>
  <g>
    <path style="fill: #ffffff" d="M 869.139 883.91 L 971.989,883.91 C 986.189,883.91 997.701,888.835 997.701,894.91 C 997.701,900.985 986.189,905.91 971.989,905.91 L 869.139,905.91 C 854.938,905.91 843.426,900.985 843.426,894.91 C 843.426,888.835 854.938,883.91 869.139,883.91z"/>
    <path style="fill: none; fill-opacity:0; stroke-width: 2; stroke: #000000" d="M 869.139 883.91 L 971.989,883.91 C 986.189,883.91 997.701,888.835 997.701,894.91 C 997.701,900.985 986.189,905.91 971.989,905.91 L 869.139,905.91 C 854.938,905.91 843.426,900.985 843.426,894.91 C 843.426,888.835 854.938,883.91 869.139,883.91"/>
    <text font-size="12.8" style="fill: #000000;text-anchor:middle;font-family:sans-serif;font-style:normal;font-weight:normal" x="920.564" y="899.71">
      <tspan x="920.564" y="899.71">data zakończenia</tspan>
    </text>
  </g>
  <line style="fill: none; fill-opacity:0; stroke-width: 2; stroke: #000000" x1="847.72" y1="864.91" x2="785.99" y2="879.774"/>
  <line style="fill: none; fill-opacity:0; stroke-width: 2; stroke: #000000" x1="843.426" y1="894.91" x2="785.99" y2="879.774"/>
  <line style="fill: none; fill-opacity:0; stroke-width: 2; stroke: #000000" x1="514" y1="802.308" x2="515" y2="857.308"/>
  <line style="fill: none; fill-opacity:0; stroke-width: 2; stroke: #000000" x1="698" y1="813.391" x2="698.1" y2="857.426"/>
</svg>
